<svg width="47" height="24" viewBox="0 0 47 24" fill="none" xmlns="http://www.w3.org/2000/svg">
<path d="M10.2977 5.63248L11.6177 8.27248C11.7977 8.63998 12.2777 8.99248 12.6827 9.05998L15.0752 9.45748C16.6052 9.71248 16.9652 10.8225 15.8627 11.9175L14.0027 13.7775C13.6877 14.0925 13.5152 14.7 13.6127 15.135L14.1452 17.4375C14.5652 19.26 13.5977 19.965 11.9852 19.0125L9.74268 17.685C9.33768 17.445 8.67018 17.445 8.25768 17.685L6.01518 19.0125C4.41018 19.965 3.43518 19.2525 3.85518 17.4375L4.38768 15.135C4.48518 14.7 4.31268 14.0925 3.99768 13.7775L2.13768 11.9175C1.04268 10.8225 1.39518 9.71248 2.92518 9.45748L5.31768 9.05998C5.71518 8.99248 6.19518 8.63998 6.37518 8.27248L7.69518 5.63248C8.41518 4.19998 9.58518 4.19998 10.2977 5.63248Z" fill="#FFCD1A"/>
<path d="M28.224 17V14.968H22.72V13.256L27.936 5.8H30.384V13.096H31.84V14.968H30.384V17H28.224ZM25.024 13.096H28.368V8.184L25.024 13.096ZM34.4383 17.08C34.0329 17.08 33.7076 16.9627 33.4622 16.728C33.2169 16.4827 33.0943 16.184 33.0943 15.832C33.0943 15.48 33.2169 15.1867 33.4622 14.952C33.7076 14.7067 34.0329 14.584 34.4383 14.584C34.8223 14.584 35.1369 14.7067 35.3823 14.952C35.6276 15.1867 35.7503 15.48 35.7503 15.832C35.7503 16.184 35.6276 16.4827 35.3823 16.728C35.1369 16.9627 34.8223 17.08 34.4383 17.08ZM41.2651 17.192C40.4225 17.192 39.7078 17.0373 39.1211 16.728C38.5451 16.4187 38.0811 16.0027 37.7291 15.48C37.3878 14.9573 37.1371 14.376 36.9771 13.736C36.8278 13.0853 36.7531 12.4293 36.7531 11.768C36.7531 10.5093 36.9291 9.42133 37.2811 8.504C37.6331 7.58667 38.1398 6.87733 38.8011 6.376C39.4625 5.864 40.2625 5.608 41.2011 5.608C41.9905 5.608 42.6571 5.76267 43.2011 6.072C43.7451 6.37067 44.1665 6.76533 44.4651 7.256C44.7638 7.74667 44.9398 8.27467 44.9931 8.84H42.9771C42.8918 8.37067 42.6945 8.01333 42.3851 7.768C42.0758 7.512 41.6758 7.384 41.1851 7.384C40.7265 7.384 40.3265 7.52267 39.9851 7.8C39.6438 8.07733 39.3771 8.49333 39.1851 9.048C39.0038 9.60267 38.8971 10.3013 38.8651 11.144C38.8651 11.1547 38.8651 11.1707 38.8651 11.192C38.8651 11.2133 38.8651 11.2293 38.8651 11.24C39.0358 10.952 39.2598 10.696 39.5371 10.472C39.8145 10.248 40.1345 10.072 40.4971 9.944C40.8598 9.816 41.2438 9.752 41.6491 9.752C42.2678 9.752 42.8438 9.90133 43.3771 10.2C43.9105 10.4987 44.3425 10.92 44.6731 11.464C45.0038 12.008 45.1691 12.6533 45.1691 13.4C45.1691 14.072 45.0038 14.7013 44.6731 15.288C44.3531 15.864 43.8998 16.328 43.3131 16.68C42.7265 17.0213 42.0438 17.192 41.2651 17.192ZM41.1371 15.336C41.5211 15.336 41.8571 15.256 42.1451 15.096C42.4438 14.936 42.6785 14.7173 42.8491 14.44C43.0198 14.152 43.1051 13.8267 43.1051 13.464C43.1051 13.08 43.0198 12.7493 42.8491 12.472C42.6785 12.1947 42.4438 11.976 42.1451 11.816C41.8465 11.656 41.5051 11.576 41.1211 11.576C40.7478 11.576 40.4118 11.656 40.1131 11.816C39.8145 11.976 39.5745 12.2 39.3931 12.488C39.2225 12.7653 39.1371 13.0853 39.1371 13.448C39.1371 13.8213 39.2225 14.152 39.3931 14.44C39.5745 14.7173 39.8145 14.936 40.1131 15.096C40.4225 15.256 40.7638 15.336 41.1371 15.336Z" fill="white"/>
</svg>
